<?xml version="1.0" encoding="UTF-8"?>
<svg id="Layer_1" xmlns="http://www.w3.org/2000/svg" version="1.1" viewBox="0 0 2630.1 862.3">
  <!-- Generator: Adobe Illustrator 29.7.1, SVG Export Plug-In . SVG Version: 2.1.1 Build 8)  -->
  <defs>
    <style>
      .st0 {
        fill: #fe0202;
      }
    </style>
  </defs>
  <path class="st0" d="M1726.3,281.1c228.2-6.6,181.4,322.6-24.2,322.6-213.6,0-179-316.7,24.2-322.6ZM1715.7,346.1c-67,11.3-106.2,156.4-37.6,187.5,110.5,50.1,179.6-211.4,37.6-187.5Z"/>
  <path class="st0" d="M697.4,468h-208.5c-4.1,50,31,89.5,82.6,70.9,20.2-7.3,36.4-36.4,39.1-37.1,15.6-3.9,55.5,11.6,73.7,10.5-17.6,52.9-73.3,88.8-128.9,91.3-122.9,5.5-176-108.5-136.3-214.5,28.4-75.9,107.8-120,187.6-105.5,89.6,16.3,105,107.4,90.6,184.4ZM496.8,418.5h126.4c5.7,0,1.2-26.2.1-31.4-3.7-17.7-10.4-32.6-27.4-40.4-51-23.3-96.1,22.9-99.1,71.8Z"/>
  <path class="st0" d="M2190.6,595.7h-83.4c10.8-74,30.4-146.8,43.3-220.6.2-39.3-42.8-38.4-69.1-22.8-34.2,20.3-46.1,51.2-55.8,87.5-13.6,50.7-20.1,104.9-33,155.9h-83.4l66.5-307.5h76.9l-7.8,39.1c61.1-63.1,197.1-72.3,189.9,45.3l-44,223.1Z"/>
  <path class="st0" d="M1028.4,363.7c-15.8-2.3-69.6,16.8-79.5,7.9s-5.5-13.3-16-20.4c-24.2-16.5-97.1-20.2-91.8,21.6,1.3,10.4,11.8,14.6,20.6,18.3,33.5,14.1,70.5,17.4,103.3,37.4,80.2,48.7,37.1,144.4-39.7,167.1-75,22.1-190.8,3.6-209.6-85.7l80.4-12.9c15,42.7,57.1,54.9,98.2,41.5,20.7-6.8,41.9-27.9,19.2-45.6-22.4-17.4-81-26.3-111.9-44.4-60.7-35.5-52-109.5,4.5-144.2,64.4-39.6,209.1-35.9,222.3,59.4Z"/>
  <path class="st0" d="M369.1,363.8c-19.7-2-59.4,14.8-76.5,10.5s-11.8-20.1-21.7-25.8c-18.7-10.9-67.9-13.1-83.4,3.1-10.9,11.4-7,27.3,6,35.2s58.4,17.9,80.5,26.4c33,12.7,70.7,31.5,74.3,71.6,13.6,150.2-262.2,158.9-292,24.9,23.4-1.3,52.1-12.1,74.7-12.9,9.6-.4,12.1,13.2,18.1,20.5,22.5,27.6,57.6,32.8,90.4,20.5,19.9-7.5,36.2-26.4,17.4-44.9-49.4-25.6-147.4-31.7-153.8-101.6-9.4-102.9,127.8-126.2,202.8-101.2,31.1,10.4,62.6,38.7,63.1,73.7Z"/>
  <path class="st0" d="M1356.7,363.8c-19.7-2-59.4,14.8-76.5,10.5-1.6-.4-11.8-20.1-21.7-25.8-18.7-10.9-67.9-13.1-83.4,3.1-10.9,11.4-7,27.3,6,35.2,17.6,10.7,58.4,17.9,80.5,26.4,33,12.7,70.7,31.5,74.3,71.6,13.6,150.2-262.2,158.9-292,24.9,23.4-1.3,52.1-12.1,74.7-12.9,9.6-.4,12.1,13.2,18.1,20.5,22.5,27.6,57.6,32.8,90.4,20.5,19.9-7.5,36.2-26.4,17.4-44.9-49.4-25.6-147.4-31.7-153.8-101.6-9.4-102.9,127.8-126.2,202.8-101.2,31.1,10.4,62.6,38.7,63.1,73.7Z"/>
  <path class="st0" d="M2573.7,363.8c-19.7-2-59.4,14.8-76.5,10.5s-11.8-20.1-21.7-25.8c-18.7-10.9-67.9-13.1-83.4,3.1-10.9,11.4-7,27.3,6,35.2,17.6,10.7,58.4,17.9,80.5,26.4,33,12.7,70.7,31.5,74.3,71.6,13.6,150.2-262.2,158.9-292,24.9,23.4-1.3,52.1-12.1,74.7-12.9,9.6-.4,12.1,13.2,18.1,20.5,22.5,27.6,57.6,32.8,90.4,20.5,19.9-7.5,36.2-26.4,17.4-44.9-49.4-25.6-147.4-31.7-153.8-101.6-9.4-102.9,127.8-126.2,202.8-101.2,31.1,10.4,62.6,38.7,63.1,73.7Z"/>
  <polygon class="st0" points="1528.7 288.2 1466.2 595.7 1382.8 595.7 1445.3 288.2 1528.7 288.2"/>
  <path class="st0" d="M1554.8,170.9c-8,25.5-8.1,54.2-19.5,78.2h-79.5c2.4-25.9,7.5-54.6,16.9-78.2h82.1Z"/>
</svg>