<?xml version="1.0" encoding="UTF-8"?>
<svg id="Layer_1" data-name="Layer 1" xmlns="http://www.w3.org/2000/svg" viewBox="0 0 2630.09 862.34">
  <defs>
    <style>
      .cls-1 {
        fill: #fd0200;
      }
    </style>
  </defs>
  <path class="cls-1" d="M121.09,526.76l83.04-13.14c7.37,17.53,16.52,29.92,27.48,37.19,10.95,7.27,25.89,10.9,44.81,10.9s35.15-4.38,46.9-13.14c8.16-5.97,12.25-13.24,12.25-21.81,0-5.77-2.09-10.95-6.27-15.53-4.39-4.38-16.23-9.76-35.55-16.13-51.78-17.12-83.84-30.67-96.19-40.62-19.32-15.53-28.97-35.85-28.97-60.94s9.35-46.7,28.08-64.82c26.08-25.29,64.82-37.94,116.2-37.94,40.82,0,71.69,7.47,92.6,22.4,20.91,14.94,34.15,35.15,39.73,60.64l-79.16,13.74c-4.18-11.55-10.96-20.21-20.31-25.99-12.75-7.77-28.08-11.65-46-11.65s-30.82,2.99-38.69,8.96c-7.87,5.97-11.8,12.84-11.8,20.61s3.98,14.54,11.95,19.71c4.98,3.19,21,8.76,48.09,16.73,41.82,12.15,69.8,24.1,83.94,35.85,19.91,16.53,29.87,36.44,29.87,59.74,0,30.07-12.65,56.16-37.94,78.26-25.3,22.1-60.94,33.16-106.94,33.16s-81.21-8.41-106.2-25.24c-24.99-16.83-41.97-40.48-50.93-70.94Z"/>
  <path class="cls-1" d="M781.24,483.44h-215.07c-.2,3.39-.3,5.97-.3,7.77,0,21.11,6.02,38.14,18.07,51.08,12.05,12.95,26.74,19.42,44.06,19.42,28.47,0,50.68-14.74,66.61-44.21l76.77,12.84c-14.94,30.87-34.91,54.02-59.9,69.45-24.99,15.43-53.02,23.15-84.08,23.15-42.62,0-77.27-13.49-103.95-40.48-26.69-26.98-40.03-62.68-40.03-107.09s12.04-82.04,36.14-115.9c32.86-45.8,79.76-68.7,140.69-68.7,38.83,0,69.69,12,92.6,35.99,22.9,24,34.35,57.6,34.35,100.82,0,20.71-2,39.33-5.97,55.86ZM708.96,431.17c.2-3.78.3-6.67.3-8.66,0-23.5-5.28-41.12-15.83-52.87-10.56-11.75-24.7-17.62-42.42-17.62s-33.61,6.67-47.65,20.01c-14.04,13.34-23.55,33.06-28.52,59.14h134.12Z"/>
  <path class="cls-1" d="M1344.92,298.24h85.73l-66.31,317.23h-85.73l66.31-317.23ZM1370.01,177.56h85.73l-16.13,77.66h-85.73l16.13-77.66Z"/>
  <path class="cls-1" d="M1461.12,483.74c0-58.74,16.57-105.59,49.73-140.54,33.16-34.95,76.72-52.42,130.69-52.42,46.8,0,83.34,12.9,109.63,38.68,26.29,25.79,39.43,60.49,39.43,104.1,0,51.38-16.43,95.79-49.29,133.23-32.86,37.44-76.87,56.16-132.03,56.16-29.87,0-56.36-5.97-79.46-17.92-23.1-11.95-40.33-28.87-51.68-50.78-11.35-21.9-17.03-45.4-17.03-70.5ZM1705.46,422.5c0-20.31-5.93-36.59-17.78-48.84-11.85-12.25-27.13-18.37-45.85-18.37s-34.95,5.73-49.29,17.18c-14.34,11.45-25.49,28.08-33.46,49.88-7.97,21.81-11.95,41.87-11.95,60.19,0,22.7,6.17,40.73,18.52,54.07,12.34,13.34,27.87,20.01,46.6,20.01,23.5,0,43.21-10.05,59.14-30.17,22.7-28.48,34.05-63.13,34.05-103.95Z"/>
  <path class="cls-1" d="M1889.77,298.24h81.25l-8.36,41.22c20.31-17.52,39.28-30.02,56.9-37.49,17.62-7.47,36.2-11.2,55.71-11.2,26.08,0,46.64,7.47,61.68,22.4,15.04,14.94,22.56,34.75,22.56,59.44,0,11.15-3.29,32.26-9.86,63.33l-37.34,179.53h-85.73l37.64-180.12c5.57-26.88,8.36-42.91,8.36-48.09,0-10.95-3.24-19.57-9.71-25.84-6.47-6.27-15.48-9.41-27.03-9.41-12.55,0-26.49,5.28-41.82,15.83-15.34,10.56-27.39,24.49-36.14,41.82-6.37,12.35-13.54,37.54-21.51,75.57l-27.18,130.24h-85.73l66.31-317.23Z"/>
  <path class="cls-1" d="M2184.9,526.76l83.04-13.14c7.37,17.53,16.52,29.92,27.48,37.19,10.95,7.27,25.89,10.9,44.81,10.9s35.15-4.38,46.9-13.14c8.16-5.97,12.25-13.24,12.25-21.81,0-5.77-2.09-10.95-6.27-15.53-4.39-4.38-16.23-9.76-35.55-16.13-51.78-17.12-83.84-30.67-96.19-40.62-19.32-15.53-28.97-35.85-28.97-60.94s9.35-46.7,28.08-64.82c26.08-25.29,64.82-37.94,116.2-37.94,40.82,0,71.69,7.47,92.6,22.4,20.91,14.94,34.15,35.15,39.73,60.64l-79.16,13.74c-4.18-11.55-10.96-20.21-20.31-25.99-12.75-7.77-28.08-11.65-46-11.65s-30.82,2.99-38.69,8.96c-7.87,5.97-11.8,12.84-11.8,20.61s3.98,14.54,11.95,19.71c4.98,3.19,21,8.76,48.09,16.73,41.82,12.15,69.8,24.1,83.94,35.85,19.91,16.53,29.87,36.44,29.87,59.74,0,30.07-12.65,56.16-37.94,78.26-25.3,22.1-60.94,33.16-106.94,33.16s-81.21-8.41-106.2-25.24c-24.99-16.83-41.97-40.48-50.93-70.94Z"/>
  <path class="cls-1" d="M1059.15,457.98l-19.59-78.99c38.01-9.84,73.92-30.01,96.92-61.45,22.78-31.14,21.24-54.36,5.39-65.95-23.34-17.08-43.09-1.93-78.4,19.35l-48.94,29.06c-39.94,25.95-91.49,38.58-138.68,4.05-53.72-39.3-61.25-119.08-9.7-189.54,28.54-39.01,72-67.73,121.26-76.64l19.2,70.82c-33.1,10.84-56.82,24.52-80,56.21-17.69,24.18-19.67,47.91-.72,61.77,19.5,14.27,42.54-2.25,76.96-24.82l45.84-27.38c46.99-30.81,93.1-38.26,138.85-4.79,53.91,39.44,67.51,118.83,8.78,199.1-32.06,43.82-81.2,77.34-137.16,89.2Z"/>
  <path class="cls-1" d="M1059.15,824.46l-19.59-78.99c38.01-9.84,73.92-30.01,96.92-61.45,22.78-31.14,21.24-54.36,5.39-65.95-23.34-17.08-43.09-1.93-78.4,19.35l-48.94,29.06c-39.94,25.95-91.49,38.58-138.68,4.05-53.72-39.3-61.25-119.08-9.7-189.54,28.54-39.01,72-67.73,121.26-76.64l19.2,70.82c-33.1,10.84-56.82,24.52-80,56.21-17.69,24.18-19.67,47.91-.72,61.77,19.5,14.27,42.54-2.25,76.96-24.82l45.84-27.38c46.99-30.81,93.1-38.26,138.85-4.79,53.91,39.44,67.51,118.83,8.78,199.1-32.06,43.82-81.2,77.34-137.16,89.2Z"/>
</svg>